<svg viewBox="-16 -32 880 192" width="880" height="192" xmlns="http://www.w3.org/2000/svg"><desc>Generated with https://github.com/Platane/snk</desc><style>:root{--cb:#1b1f230a;--cs:purple;--ce:#161b22;--c0:#161b22;--c1:#01311f;--c2:#034525;--c3:#0f6d31;--c4:#00c647}.c{shape-rendering:geometricPrecision;fill:var(--ce);stroke-width:1px;stroke:var(--cb);animation:none 27900ms linear infinite;width:12px;height:12px}@keyframes c0{11.1%{fill:var(--c1)}11.12%,100%{fill:var(--ce)}}.c.c0{fill:var(--c1);animation-name:c0}@keyframes c1{39.77%{fill:var(--c1)}39.79%,100%{fill:var(--ce)}}.c.c1{fill:var(--c1);animation-name:c1}@keyframes c2{13.61%{fill:var(--c1)}13.63%,100%{fill:var(--ce)}}.c.c2{fill:var(--c1);animation-name:c2}@keyframes c3{13.97%{fill:var(--c1)}13.99%,100%{fill:var(--ce)}}.c.c3{fill:var(--c1);animation-name:c3}@keyframes c4{71.32%{fill:var(--c3)}71.34%,100%{fill:var(--ce)}}.c.c4{fill:var(--c3);animation-name:c4}@keyframes c5{15.04%{fill:var(--c1)}15.06%,100%{fill:var(--ce)}}.c.c5{fill:var(--c1);animation-name:c5}@keyframes c6{14.69%{fill:var(--c1)}14.71%,100%{fill:var(--ce)}}.c.c6{fill:var(--c1);animation-name:c6}@keyframes c7{69.17%{fill:var(--c3)}69.19%,100%{fill:var(--ce)}}.c.c7{fill:var(--c3);animation-name:c7}@keyframes c8{65.94%{fill:var(--c2)}65.96%,100%{fill:var(--ce)}}.c.c8{fill:var(--c2);animation-name:c8}@keyframes c9{66.3%{fill:var(--c2)}66.32%,100%{fill:var(--ce)}}.c.c9{fill:var(--c2);animation-name:c9}@keyframes ca{16.12%{fill:var(--c1)}16.14%,100%{fill:var(--ce)}}.c.ca{fill:var(--c1);animation-name:ca}@keyframes cb{68.09%{fill:var(--c2)}68.11%,100%{fill:var(--ce)}}.c.cb{fill:var(--c2);animation-name:cb}@keyframes cc{65.22%{fill:var(--c2)}65.24%,100%{fill:var(--ce)}}.c.cc{fill:var(--c2);animation-name:cc}@keyframes cd{84.22%{fill:var(--c4)}84.24%,100%{fill:var(--ce)}}.c.cd{fill:var(--c4);animation-name:cd}@keyframes ce{84.58%{fill:var(--c4)}84.6%,100%{fill:var(--ce)}}.c.ce{fill:var(--c4);animation-name:ce}@keyframes cf{16.84%{fill:var(--c1)}16.86%,100%{fill:var(--ce)}}.c.cf{fill:var(--c1);animation-name:cf}@keyframes cg{35.83%{fill:var(--c1)}35.85%,100%{fill:var(--ce)}}.c.cg{fill:var(--c1);animation-name:cg}@keyframes ch{19.34%{fill:var(--c1)}19.36%,100%{fill:var(--ce)}}.c.ch{fill:var(--c1);animation-name:ch}@keyframes ci{18.99%{fill:var(--c1)}19.01%,100%{fill:var(--ce)}}.c.ci{fill:var(--c1);animation-name:ci}@keyframes cj{17.91%{fill:var(--c1)}17.93%,100%{fill:var(--ce)}}.c.cj{fill:var(--c1);animation-name:cj}@keyframes ck{17.55%{fill:var(--c1)}17.57%,100%{fill:var(--ce)}}.c.ck{fill:var(--c1);animation-name:ck}@keyframes cl{18.63%{fill:var(--c1)}18.65%,100%{fill:var(--ce)}}.c.cl{fill:var(--c1);animation-name:cl}@keyframes cm{18.27%{fill:var(--c1)}18.29%,100%{fill:var(--ce)}}.c.cm{fill:var(--c1);animation-name:cm}@keyframes cn{20.42%{fill:var(--c1)}20.44%,100%{fill:var(--ce)}}.c.cn{fill:var(--c1);animation-name:cn}@keyframes co{20.06%{fill:var(--c1)}20.08%,100%{fill:var(--ce)}}.c.co{fill:var(--c1);animation-name:co}@keyframes cp{63.43%{fill:var(--c2)}63.45%,100%{fill:var(--ce)}}.c.cp{fill:var(--c2);animation-name:cp}@keyframes cq{55.19%{fill:var(--c2)}55.21%,100%{fill:var(--ce)}}.c.cq{fill:var(--c2);animation-name:cq}@keyframes cr{54.47%{fill:var(--c2)}54.49%,100%{fill:var(--ce)}}.c.cr{fill:var(--c2);animation-name:cr}@keyframes cs{33.32%{fill:var(--c1)}33.34%,100%{fill:var(--ce)}}.c.cs{fill:var(--c1);animation-name:cs}@keyframes ct{32.61%{fill:var(--c1)}32.63%,100%{fill:var(--ce)}}.c.ct{fill:var(--c1);animation-name:ct}@keyframes cu{32.25%{fill:var(--c1)}32.27%,100%{fill:var(--ce)}}.c.cu{fill:var(--c1);animation-name:cu}@keyframes cv{56.26%{fill:var(--c2)}56.28%,100%{fill:var(--ce)}}.c.cv{fill:var(--c2);animation-name:cv}@keyframes cw{22.21%{fill:var(--c1)}22.23%,100%{fill:var(--ce)}}.c.cw{fill:var(--c1);animation-name:cw}@keyframes cx{53.4%{fill:var(--c2)}53.42%,100%{fill:var(--ce)}}.c.cx{fill:var(--c2);animation-name:cx}@keyframes cy{52.68%{fill:var(--c2)}52.7%,100%{fill:var(--ce)}}.c.cy{fill:var(--c2);animation-name:cy}@keyframes cz{53.04%{fill:var(--c2)}53.06%,100%{fill:var(--ce)}}.c.cz{fill:var(--c2);animation-name:cz}@keyframes c10{31.53%{fill:var(--c1)}31.55%,100%{fill:var(--ce)}}.c.c10{fill:var(--c1);animation-name:c10}@keyframes c11{57.34%{fill:var(--c2)}57.36%,100%{fill:var(--ce)}}.c.c11{fill:var(--c2);animation-name:c11}@keyframes c12{23.29%{fill:var(--c1)}23.31%,100%{fill:var(--ce)}}.c.c12{fill:var(--c1);animation-name:c12}@keyframes c13{24.36%{fill:var(--c1)}24.38%,100%{fill:var(--ce)}}.c.c13{fill:var(--c1);animation-name:c13}@keyframes c14{24%{fill:var(--c1)}24.02%,100%{fill:var(--ce)}}.c.c14{fill:var(--c1);animation-name:c14}@keyframes c15{27.95%{fill:var(--c1)}27.97%,100%{fill:var(--ce)}}.c.c15{fill:var(--c1);animation-name:c15}@keyframes c16{59.49%{fill:var(--c2)}59.51%,100%{fill:var(--ce)}}.c.c16{fill:var(--c2);animation-name:c16}@keyframes c17{24.72%{fill:var(--c1)}24.74%,100%{fill:var(--ce)}}.c.c17{fill:var(--c1);animation-name:c17}@keyframes c18{50.17%{fill:var(--c2)}50.19%,100%{fill:var(--ce)}}.c.c18{fill:var(--c2);animation-name:c18}@keyframes c19{25.08%{fill:var(--c1)}25.1%,100%{fill:var(--ce)}}.c.c19{fill:var(--c1);animation-name:c19}@keyframes c1a{48.38%{fill:var(--c1)}48.4%,100%{fill:var(--ce)}}.c.c1a{fill:var(--c1);animation-name:c1a}@keyframes c1b{50.89%{fill:var(--c2)}50.91%,100%{fill:var(--ce)}}.c.c1b{fill:var(--c2);animation-name:c1b}@keyframes c1c{51.24%{fill:var(--c2)}51.26%,100%{fill:var(--ce)}}.c.c1c{fill:var(--c2);animation-name:c1c}@keyframes c1d{29.02%{fill:var(--c1)}29.04%,100%{fill:var(--ce)}}.c.c1d{fill:var(--c1);animation-name:c1d}@keyframes c1e{29.38%{fill:var(--c1)}29.4%,100%{fill:var(--ce)}}.c.c1e{fill:var(--c1);animation-name:c1e}@keyframes c1f{48.74%{fill:var(--c2)}48.76%,100%{fill:var(--ce)}}.c.c1f{fill:var(--c2);animation-name:c1f}@keyframes c1g{79.2%{fill:var(--c4)}79.22%,100%{fill:var(--ce)}}.c.c1g{fill:var(--c4);animation-name:c1g}@keyframes c1h{78.84%{fill:var(--c3)}78.86%,100%{fill:var(--ce)}}.c.c1h{fill:var(--c3);animation-name:c1h}.u{transform-origin:0 0;transform:scale(0,1);animation:none linear 27900ms infinite}@keyframes u0{11.1%{transform:scale(0.000,1)}11.12%,13.61%{transform:scale(0.032,1)}13.63%,13.97%{transform:scale(0.065,1)}13.99%,14.69%{transform:scale(0.097,1)}14.71%,15.04%{transform:scale(0.129,1)}15.06%,16.12%{transform:scale(0.161,1)}16.14%,16.84%{transform:scale(0.194,1)}16.86%,17.55%{transform:scale(0.226,1)}17.57%,17.91%{transform:scale(0.258,1)}17.93%,18.27%{transform:scale(0.290,1)}18.29%,18.63%{transform:scale(0.323,1)}18.65%,18.99%{transform:scale(0.355,1)}19.01%,19.34%{transform:scale(0.387,1)}19.36%,20.06%{transform:scale(0.419,1)}20.08%,20.42%{transform:scale(0.452,1)}20.44%,22.21%{transform:scale(0.484,1)}22.23%,23.29%{transform:scale(0.516,1)}23.31%,24%{transform:scale(0.548,1)}24.02%,24.36%{transform:scale(0.581,1)}24.38%,24.72%{transform:scale(0.613,1)}24.74%,25.08%{transform:scale(0.645,1)}25.1%,27.95%{transform:scale(0.677,1)}27.97%,29.02%{transform:scale(0.710,1)}29.04%,29.38%{transform:scale(0.742,1)}29.4%,31.53%{transform:scale(0.774,1)}31.55%,32.25%{transform:scale(0.806,1)}32.27%,32.61%{transform:scale(0.839,1)}32.63%,33.32%{transform:scale(0.871,1)}33.34%,35.83%{transform:scale(0.903,1)}35.85%,39.77%{transform:scale(0.935,1)}39.79%,48.38%{transform:scale(0.968,1)}48.4%,100%{transform:scale(1.000,1)}}.u.u0{fill:var(--c1);animation-name:u0;transform-origin:0.0px 0}@keyframes u1{48.74%{transform:scale(0.000,1)}48.76%,50.17%{transform:scale(0.059,1)}50.19%,50.89%{transform:scale(0.118,1)}50.91%,51.24%{transform:scale(0.176,1)}51.26%,52.68%{transform:scale(0.235,1)}52.7%,53.04%{transform:scale(0.294,1)}53.06%,53.4%{transform:scale(0.353,1)}53.42%,54.47%{transform:scale(0.412,1)}54.49%,55.19%{transform:scale(0.471,1)}55.21%,56.26%{transform:scale(0.529,1)}56.28%,57.34%{transform:scale(0.588,1)}57.36%,59.49%{transform:scale(0.647,1)}59.51%,63.43%{transform:scale(0.706,1)}63.45%,65.22%{transform:scale(0.765,1)}65.24%,65.94%{transform:scale(0.824,1)}65.96%,66.3%{transform:scale(0.882,1)}66.32%,68.09%{transform:scale(0.941,1)}68.11%,100%{transform:scale(1.000,1)}}.u.u1{fill:var(--c2);animation-name:u1;transform-origin:486.8px 0}@keyframes u2{69.17%{transform:scale(0.000,1)}69.19%,71.32%{transform:scale(0.333,1)}71.34%,78.84%{transform:scale(0.667,1)}78.86%,100%{transform:scale(1.000,1)}}.u.u2{fill:var(--c3);animation-name:u2;transform-origin:753.8px 0}@keyframes u3{79.2%{transform:scale(0.000,1)}79.22%,84.22%{transform:scale(0.333,1)}84.24%,84.58%{transform:scale(0.667,1)}84.6%,100%{transform:scale(1.000,1)}}.u.u3{fill:var(--c4);animation-name:u3;transform-origin:800.9px 0}.s{shape-rendering:geometricPrecision;fill:var(--cs);animation:none linear 27900ms infinite}@keyframes s0{0%,99.64%{transform:translate(0px,-16px)}0.36%{transform:translate(0px,0px)}9.32%{transform:translate(400px,0px)}11.11%{transform:translate(400px,80px)}14.34%{transform:translate(544px,80px)}15.05%{transform:translate(544px,48px)}16.13%,37.63%{transform:translate(592px,48px)}16.49%,37.28%{transform:translate(592px,64px)}17.56%{transform:translate(640px,64px)}17.92%{transform:translate(640px,48px)}18.28%{transform:translate(656px,48px)}18.64%{transform:translate(656px,32px)}19%{transform:translate(640px,32px)}19.35%{transform:translate(640px,16px)}20.07%,63.8%{transform:translate(672px,16px)}20.43%{transform:translate(672px,0px)}21.51%{transform:translate(720px,0px)}21.86%{transform:translate(720px,16px)}22.58%{transform:translate(752px,16px)}22.94%{transform:translate(752px,32px)}23.66%{transform:translate(784px,32px)}24.37%{transform:translate(784px,0px)}25.09%,48.03%,77.42%{transform:translate(816px,0px)}25.45%{transform:translate(816px,-16px)}26.16%{transform:translate(784px,-16px)}27.96%{transform:translate(784px,64px)}28.67%{transform:translate(816px,64px)}29.39%{transform:translate(816px,96px)}29.75%{transform:translate(800px,96px)}30.11%{transform:translate(800px,80px)}31.18%{transform:translate(752px,80px)}31.54%{transform:translate(752px,96px)}32.26%{transform:translate(720px,96px)}32.97%{transform:translate(720px,64px)}35.13%{transform:translate(624px,64px)}35.84%{transform:translate(624px,96px)}36.2%{transform:translate(608px,96px)}36.92%{transform:translate(608px,64px)}38.35%{transform:translate(560px,48px)}38.71%{transform:translate(560px,32px)}39.78%{transform:translate(512px,32px)}40.14%{transform:translate(512px,16px)}41.22%{transform:translate(560px,16px)}41.58%{transform:translate(560px,0px)}44.8%{transform:translate(704px,0px)}45.16%{transform:translate(704px,-16px)}46.24%{transform:translate(752px,-16px)}46.59%{transform:translate(752px,0px)}48.39%,50.54%{transform:translate(816px,16px)}48.75%{transform:translate(832px,16px)}49.1%{transform:translate(832px,0px)}49.82%{transform:translate(800px,0px)}50.18%{transform:translate(800px,16px)}51.25%,78.49%{transform:translate(816px,48px)}52.69%{transform:translate(752px,48px)}53.05%{transform:translate(752px,64px)}53.41%{transform:translate(736px,64px)}53.76%{transform:translate(736px,48px)}54.48%{transform:translate(704px,48px)}55.2%{transform:translate(704px,16px)}55.91%{transform:translate(736px,16px)}56.27%{transform:translate(736px,0px)}56.99%{transform:translate(768px,0px)}57.35%{transform:translate(768px,16px)}57.71%{transform:translate(784px,16px)}59.5%{transform:translate(784px,96px)}59.86%{transform:translate(768px,96px)}61.29%{transform:translate(768px,32px)}63.44%{transform:translate(672px,32px)}65.95%{transform:translate(576px,16px)}66.31%{transform:translate(576px,32px)}66.67%{transform:translate(592px,32px)}68.1%{transform:translate(592px,96px)}69.18%{transform:translate(544px,96px)}71.33%{transform:translate(544px,0px)}78.85%{transform:translate(832px,48px)}79.21%{transform:translate(832px,32px)}84.23%{transform:translate(608px,32px)}84.59%{transform:translate(608px,48px)}91.76%{transform:translate(288px,48px)}92.47%{transform:translate(288px,16px)}94.62%{transform:translate(192px,16px)}94.98%{transform:translate(192px,0px)}97.13%{transform:translate(96px,0px)}97.49%{transform:translate(96px,-16px)}}.s.s0{transform:translate(0px,-16px);animation-name:s0}@keyframes s1{0%,99.64%{transform:translate(16px,-16px)}0.36%{transform:translate(0px,-16px)}0.72%{transform:translate(0px,0px)}9.68%{transform:translate(400px,0px)}11.47%{transform:translate(400px,80px)}14.7%{transform:translate(544px,80px)}15.41%{transform:translate(544px,48px)}16.49%,37.99%{transform:translate(592px,48px)}16.85%,37.63%{transform:translate(592px,64px)}17.92%{transform:translate(640px,64px)}18.28%{transform:translate(640px,48px)}18.64%{transform:translate(656px,48px)}19%{transform:translate(656px,32px)}19.35%{transform:translate(640px,32px)}19.71%{transform:translate(640px,16px)}20.43%,64.16%{transform:translate(672px,16px)}20.79%{transform:translate(672px,0px)}21.86%{transform:translate(720px,0px)}22.22%{transform:translate(720px,16px)}22.94%{transform:translate(752px,16px)}23.3%{transform:translate(752px,32px)}24.01%{transform:translate(784px,32px)}24.73%{transform:translate(784px,0px)}25.45%,48.39%,77.78%{transform:translate(816px,0px)}25.81%{transform:translate(816px,-16px)}26.52%{transform:translate(784px,-16px)}28.32%{transform:translate(784px,64px)}29.03%{transform:translate(816px,64px)}29.75%{transform:translate(816px,96px)}30.11%{transform:translate(800px,96px)}30.47%{transform:translate(800px,80px)}31.54%{transform:translate(752px,80px)}31.9%{transform:translate(752px,96px)}32.62%{transform:translate(720px,96px)}33.33%{transform:translate(720px,64px)}35.48%{transform:translate(624px,64px)}36.2%{transform:translate(624px,96px)}36.56%{transform:translate(608px,96px)}37.28%{transform:translate(608px,64px)}38.71%{transform:translate(560px,48px)}39.07%{transform:translate(560px,32px)}40.14%{transform:translate(512px,32px)}40.5%{transform:translate(512px,16px)}41.58%{transform:translate(560px,16px)}41.94%{transform:translate(560px,0px)}45.16%{transform:translate(704px,0px)}45.52%{transform:translate(704px,-16px)}46.59%{transform:translate(752px,-16px)}46.95%{transform:translate(752px,0px)}48.75%,50.9%{transform:translate(816px,16px)}49.1%{transform:translate(832px,16px)}49.46%{transform:translate(832px,0px)}50.18%{transform:translate(800px,0px)}50.54%{transform:translate(800px,16px)}51.61%,78.85%{transform:translate(816px,48px)}53.05%{transform:translate(752px,48px)}53.41%{transform:translate(752px,64px)}53.76%{transform:translate(736px,64px)}54.12%{transform:translate(736px,48px)}54.84%{transform:translate(704px,48px)}55.56%{transform:translate(704px,16px)}56.27%{transform:translate(736px,16px)}56.63%{transform:translate(736px,0px)}57.35%{transform:translate(768px,0px)}57.71%{transform:translate(768px,16px)}58.06%{transform:translate(784px,16px)}59.86%{transform:translate(784px,96px)}60.22%{transform:translate(768px,96px)}61.65%{transform:translate(768px,32px)}63.8%{transform:translate(672px,32px)}66.31%{transform:translate(576px,16px)}66.67%{transform:translate(576px,32px)}67.03%{transform:translate(592px,32px)}68.46%{transform:translate(592px,96px)}69.53%{transform:translate(544px,96px)}71.68%{transform:translate(544px,0px)}79.21%{transform:translate(832px,48px)}79.57%{transform:translate(832px,32px)}84.59%{transform:translate(608px,32px)}84.95%{transform:translate(608px,48px)}92.11%{transform:translate(288px,48px)}92.83%{transform:translate(288px,16px)}94.98%{transform:translate(192px,16px)}95.34%{transform:translate(192px,0px)}97.49%{transform:translate(96px,0px)}97.85%{transform:translate(96px,-16px)}}.s.s1{transform:translate(16px,-16px);animation-name:s1}@keyframes s2{0%,99.64%{transform:translate(32px,-16px)}0.72%{transform:translate(0px,-16px)}1.08%{transform:translate(0px,0px)}10.04%{transform:translate(400px,0px)}11.83%{transform:translate(400px,80px)}15.05%{transform:translate(544px,80px)}15.77%{transform:translate(544px,48px)}16.85%,38.35%{transform:translate(592px,48px)}17.2%,37.99%{transform:translate(592px,64px)}18.28%{transform:translate(640px,64px)}18.64%{transform:translate(640px,48px)}19%{transform:translate(656px,48px)}19.35%{transform:translate(656px,32px)}19.71%{transform:translate(640px,32px)}20.07%{transform:translate(640px,16px)}20.79%,64.52%{transform:translate(672px,16px)}21.15%{transform:translate(672px,0px)}22.22%{transform:translate(720px,0px)}22.58%{transform:translate(720px,16px)}23.3%{transform:translate(752px,16px)}23.66%{transform:translate(752px,32px)}24.37%{transform:translate(784px,32px)}25.09%{transform:translate(784px,0px)}25.81%,48.75%,78.14%{transform:translate(816px,0px)}26.16%{transform:translate(816px,-16px)}26.88%{transform:translate(784px,-16px)}28.67%{transform:translate(784px,64px)}29.39%{transform:translate(816px,64px)}30.11%{transform:translate(816px,96px)}30.47%{transform:translate(800px,96px)}30.82%{transform:translate(800px,80px)}31.9%{transform:translate(752px,80px)}32.26%{transform:translate(752px,96px)}32.97%{transform:translate(720px,96px)}33.69%{transform:translate(720px,64px)}35.84%{transform:translate(624px,64px)}36.56%{transform:translate(624px,96px)}36.92%{transform:translate(608px,96px)}37.63%{transform:translate(608px,64px)}39.07%{transform:translate(560px,48px)}39.43%{transform:translate(560px,32px)}40.5%{transform:translate(512px,32px)}40.86%{transform:translate(512px,16px)}41.94%{transform:translate(560px,16px)}42.29%{transform:translate(560px,0px)}45.52%{transform:translate(704px,0px)}45.88%{transform:translate(704px,-16px)}46.95%{transform:translate(752px,-16px)}47.31%{transform:translate(752px,0px)}49.1%,51.25%{transform:translate(816px,16px)}49.46%{transform:translate(832px,16px)}49.82%{transform:translate(832px,0px)}50.54%{transform:translate(800px,0px)}50.9%{transform:translate(800px,16px)}51.97%,79.21%{transform:translate(816px,48px)}53.41%{transform:translate(752px,48px)}53.76%{transform:translate(752px,64px)}54.12%{transform:translate(736px,64px)}54.48%{transform:translate(736px,48px)}55.2%{transform:translate(704px,48px)}55.91%{transform:translate(704px,16px)}56.63%{transform:translate(736px,16px)}56.99%{transform:translate(736px,0px)}57.71%{transform:translate(768px,0px)}58.06%{transform:translate(768px,16px)}58.42%{transform:translate(784px,16px)}60.22%{transform:translate(784px,96px)}60.57%{transform:translate(768px,96px)}62.01%{transform:translate(768px,32px)}64.16%{transform:translate(672px,32px)}66.67%{transform:translate(576px,16px)}67.03%{transform:translate(576px,32px)}67.38%{transform:translate(592px,32px)}68.82%{transform:translate(592px,96px)}69.89%{transform:translate(544px,96px)}72.04%{transform:translate(544px,0px)}79.57%{transform:translate(832px,48px)}79.93%{transform:translate(832px,32px)}84.95%{transform:translate(608px,32px)}85.3%{transform:translate(608px,48px)}92.47%{transform:translate(288px,48px)}93.19%{transform:translate(288px,16px)}95.34%{transform:translate(192px,16px)}95.7%{transform:translate(192px,0px)}97.85%{transform:translate(96px,0px)}98.21%{transform:translate(96px,-16px)}}.s.s2{transform:translate(32px,-16px);animation-name:s2}@keyframes s3{0%,99.64%{transform:translate(48px,-16px)}1.08%{transform:translate(0px,-16px)}1.43%{transform:translate(0px,0px)}10.39%{transform:translate(400px,0px)}12.19%{transform:translate(400px,80px)}15.41%{transform:translate(544px,80px)}16.13%{transform:translate(544px,48px)}17.2%,38.71%{transform:translate(592px,48px)}17.56%,38.35%{transform:translate(592px,64px)}18.64%{transform:translate(640px,64px)}19%{transform:translate(640px,48px)}19.35%{transform:translate(656px,48px)}19.71%{transform:translate(656px,32px)}20.07%{transform:translate(640px,32px)}20.43%{transform:translate(640px,16px)}21.15%,64.87%{transform:translate(672px,16px)}21.51%{transform:translate(672px,0px)}22.58%{transform:translate(720px,0px)}22.94%{transform:translate(720px,16px)}23.66%{transform:translate(752px,16px)}24.01%{transform:translate(752px,32px)}24.73%{transform:translate(784px,32px)}25.45%{transform:translate(784px,0px)}26.16%,49.1%,78.49%{transform:translate(816px,0px)}26.52%{transform:translate(816px,-16px)}27.24%{transform:translate(784px,-16px)}29.03%{transform:translate(784px,64px)}29.75%{transform:translate(816px,64px)}30.47%{transform:translate(816px,96px)}30.82%{transform:translate(800px,96px)}31.18%{transform:translate(800px,80px)}32.26%{transform:translate(752px,80px)}32.62%{transform:translate(752px,96px)}33.33%{transform:translate(720px,96px)}34.05%{transform:translate(720px,64px)}36.2%{transform:translate(624px,64px)}36.92%{transform:translate(624px,96px)}37.28%{transform:translate(608px,96px)}37.99%{transform:translate(608px,64px)}39.43%{transform:translate(560px,48px)}39.78%{transform:translate(560px,32px)}40.86%{transform:translate(512px,32px)}41.22%{transform:translate(512px,16px)}42.29%{transform:translate(560px,16px)}42.65%{transform:translate(560px,0px)}45.88%{transform:translate(704px,0px)}46.24%{transform:translate(704px,-16px)}47.31%{transform:translate(752px,-16px)}47.67%{transform:translate(752px,0px)}49.46%,51.61%{transform:translate(816px,16px)}49.82%{transform:translate(832px,16px)}50.18%{transform:translate(832px,0px)}50.9%{transform:translate(800px,0px)}51.25%{transform:translate(800px,16px)}52.33%,79.57%{transform:translate(816px,48px)}53.76%{transform:translate(752px,48px)}54.12%{transform:translate(752px,64px)}54.48%{transform:translate(736px,64px)}54.84%{transform:translate(736px,48px)}55.56%{transform:translate(704px,48px)}56.27%{transform:translate(704px,16px)}56.99%{transform:translate(736px,16px)}57.35%{transform:translate(736px,0px)}58.06%{transform:translate(768px,0px)}58.42%{transform:translate(768px,16px)}58.78%{transform:translate(784px,16px)}60.57%{transform:translate(784px,96px)}60.93%{transform:translate(768px,96px)}62.37%{transform:translate(768px,32px)}64.52%{transform:translate(672px,32px)}67.03%{transform:translate(576px,16px)}67.38%{transform:translate(576px,32px)}67.74%{transform:translate(592px,32px)}69.18%{transform:translate(592px,96px)}70.25%{transform:translate(544px,96px)}72.4%{transform:translate(544px,0px)}79.93%{transform:translate(832px,48px)}80.29%{transform:translate(832px,32px)}85.3%{transform:translate(608px,32px)}85.66%{transform:translate(608px,48px)}92.83%{transform:translate(288px,48px)}93.55%{transform:translate(288px,16px)}95.7%{transform:translate(192px,16px)}96.06%{transform:translate(192px,0px)}98.21%{transform:translate(96px,0px)}98.57%{transform:translate(96px,-16px)}}.s.s3{transform:translate(48px,-16px);animation-name:s3}</style><rect class="c" x="2" y="2" rx="2" ry="2"/><rect class="c" x="2" y="18" rx="2" ry="2"/><rect class="c" x="2" y="34" rx="2" ry="2"/><rect class="c" x="2" y="50" rx="2" ry="2"/><rect class="c" x="2" y="66" rx="2" ry="2"/><rect class="c" x="2" y="82" rx="2" ry="2"/><rect class="c" x="2" y="98" rx="2" ry="2"/><rect class="c" x="18" y="2" rx="2" ry="2"/><rect class="c" x="18" y="18" rx="2" ry="2"/><rect class="c" x="18" y="34" rx="2" ry="2"/><rect class="c" x="18" y="50" rx="2" ry="2"/><rect class="c" x="18" y="66" rx="2" ry="2"/><rect class="c" x="18" y="82" rx="2" ry="2"/><rect class="c" x="18" y="98" rx="2" ry="2"/><rect class="c" x="34" y="2" rx="2" ry="2"/><rect class="c" x="34" y="18" rx="2" ry="2"/><rect class="c" x="34" y="34" rx="2" ry="2"/><rect class="c" x="34" y="50" rx="2" ry="2"/><rect class="c" x="34" y="66" rx="2" ry="2"/><rect class="c" x="34" y="82" rx="2" ry="2"/><rect class="c" x="34" y="98" rx="2" ry="2"/><rect class="c" x="50" y="2" rx="2" ry="2"/><rect class="c" x="50" y="18" rx="2" ry="2"/><rect class="c" x="50" y="34" rx="2" ry="2"/><rect class="c" x="50" y="50" rx="2" ry="2"/><rect class="c" x="50" y="66" rx="2" ry="2"/><rect class="c" x="50" y="82" rx="2" ry="2"/><rect class="c" x="50" y="98" rx="2" ry="2"/><rect class="c" x="66" y="2" rx="2" ry="2"/><rect class="c" x="66" y="18" rx="2" ry="2"/><rect class="c" x="66" y="34" rx="2" ry="2"/><rect class="c" x="66" y="50" rx="2" ry="2"/><rect class="c" x="66" y="66" rx="2" ry="2"/><rect class="c" x="66" y="82" rx="2" ry="2"/><rect class="c" x="66" y="98" rx="2" ry="2"/><rect class="c" x="82" y="2" rx="2" ry="2"/><rect class="c" x="82" y="18" rx="2" ry="2"/><rect class="c" x="82" y="34" rx="2" ry="2"/><rect class="c" x="82" y="50" rx="2" ry="2"/><rect class="c" x="82" y="66" rx="2" ry="2"/><rect class="c" x="82" y="82" rx="2" ry="2"/><rect class="c" x="82" y="98" rx="2" ry="2"/><rect class="c" x="98" y="2" rx="2" ry="2"/><rect class="c" x="98" y="18" rx="2" ry="2"/><rect class="c" x="98" y="34" rx="2" ry="2"/><rect class="c" x="98" y="50" rx="2" ry="2"/><rect class="c" x="98" y="66" rx="2" ry="2"/><rect class="c" x="98" y="82" rx="2" ry="2"/><rect class="c" x="98" y="98" rx="2" ry="2"/><rect class="c" x="114" y="2" rx="2" ry="2"/><rect class="c" x="114" y="18" rx="2" ry="2"/><rect class="c" x="114" y="34" rx="2" ry="2"/><rect class="c" x="114" y="50" rx="2" ry="2"/><rect class="c" x="114" y="66" rx="2" ry="2"/><rect class="c" x="114" y="82" rx="2" ry="2"/><rect class="c" x="114" y="98" rx="2" ry="2"/><rect class="c" x="130" y="2" rx="2" ry="2"/><rect class="c" x="130" y="18" rx="2" ry="2"/><rect class="c" x="130" y="34" rx="2" ry="2"/><rect class="c" x="130" y="50" rx="2" ry="2"/><rect class="c" x="130" y="66" rx="2" ry="2"/><rect class="c" x="130" y="82" rx="2" ry="2"/><rect class="c" x="130" y="98" rx="2" ry="2"/><rect class="c" x="146" y="2" rx="2" ry="2"/><rect class="c" x="146" y="18" rx="2" ry="2"/><rect class="c" x="146" y="34" rx="2" ry="2"/><rect class="c" x="146" y="50" rx="2" ry="2"/><rect class="c" x="146" y="66" rx="2" ry="2"/><rect class="c" x="146" y="82" rx="2" ry="2"/><rect class="c" x="146" y="98" rx="2" ry="2"/><rect class="c" x="162" y="2" rx="2" ry="2"/><rect class="c" x="162" y="18" rx="2" ry="2"/><rect class="c" x="162" y="34" rx="2" ry="2"/><rect class="c" x="162" y="50" rx="2" ry="2"/><rect class="c" x="162" y="66" rx="2" ry="2"/><rect class="c" x="162" y="82" rx="2" ry="2"/><rect class="c" x="162" y="98" rx="2" ry="2"/><rect class="c" x="178" y="2" rx="2" ry="2"/><rect class="c" x="178" y="18" rx="2" ry="2"/><rect class="c" x="178" y="34" rx="2" ry="2"/><rect class="c" x="178" y="50" rx="2" ry="2"/><rect class="c" x="178" y="66" rx="2" ry="2"/><rect class="c" x="178" y="82" rx="2" ry="2"/><rect class="c" x="178" y="98" rx="2" ry="2"/><rect class="c" x="194" y="2" rx="2" ry="2"/><rect class="c" x="194" y="18" rx="2" ry="2"/><rect class="c" x="194" y="34" rx="2" ry="2"/><rect class="c" x="194" y="50" rx="2" ry="2"/><rect class="c" x="194" y="66" rx="2" ry="2"/><rect class="c" x="194" y="82" rx="2" ry="2"/><rect class="c" x="194" y="98" rx="2" ry="2"/><rect class="c" x="210" y="2" rx="2" ry="2"/><rect class="c" x="210" y="18" rx="2" ry="2"/><rect class="c" x="210" y="34" rx="2" ry="2"/><rect class="c" x="210" y="50" rx="2" ry="2"/><rect class="c" x="210" y="66" rx="2" ry="2"/><rect class="c" x="210" y="82" rx="2" ry="2"/><rect class="c" x="210" y="98" rx="2" ry="2"/><rect class="c" x="226" y="2" rx="2" ry="2"/><rect class="c" x="226" y="18" rx="2" ry="2"/><rect class="c" x="226" y="34" rx="2" ry="2"/><rect class="c" x="226" y="50" rx="2" ry="2"/><rect class="c" x="226" y="66" rx="2" ry="2"/><rect class="c" x="226" y="82" rx="2" ry="2"/><rect class="c" x="226" y="98" rx="2" ry="2"/><rect class="c" x="242" y="2" rx="2" ry="2"/><rect class="c" x="242" y="18" rx="2" ry="2"/><rect class="c" x="242" y="34" rx="2" ry="2"/><rect class="c" x="242" y="50" rx="2" ry="2"/><rect class="c" x="242" y="66" rx="2" ry="2"/><rect class="c" x="242" y="82" rx="2" ry="2"/><rect class="c" x="242" y="98" rx="2" ry="2"/><rect class="c" x="258" y="2" rx="2" ry="2"/><rect class="c" x="258" y="18" rx="2" ry="2"/><rect class="c" x="258" y="34" rx="2" ry="2"/><rect class="c" x="258" y="50" rx="2" ry="2"/><rect class="c" x="258" y="66" rx="2" ry="2"/><rect class="c" x="258" y="82" rx="2" ry="2"/><rect class="c" x="258" y="98" rx="2" ry="2"/><rect class="c" x="274" y="2" rx="2" ry="2"/><rect class="c" x="274" y="18" rx="2" ry="2"/><rect class="c" x="274" y="34" rx="2" ry="2"/><rect class="c" x="274" y="50" rx="2" ry="2"/><rect class="c" x="274" y="66" rx="2" ry="2"/><rect class="c" x="274" y="82" rx="2" ry="2"/><rect class="c" x="274" y="98" rx="2" ry="2"/><rect class="c" x="290" y="2" rx="2" ry="2"/><rect class="c" x="290" y="18" rx="2" ry="2"/><rect class="c" x="290" y="34" rx="2" ry="2"/><rect class="c" x="290" y="50" rx="2" ry="2"/><rect class="c" x="290" y="66" rx="2" ry="2"/><rect class="c" x="290" y="82" rx="2" ry="2"/><rect class="c" x="290" y="98" rx="2" ry="2"/><rect class="c" x="306" y="2" rx="2" ry="2"/><rect class="c" x="306" y="18" rx="2" ry="2"/><rect class="c" x="306" y="34" rx="2" ry="2"/><rect class="c" x="306" y="50" rx="2" ry="2"/><rect class="c" x="306" y="66" rx="2" ry="2"/><rect class="c" x="306" y="82" rx="2" ry="2"/><rect class="c" x="306" y="98" rx="2" ry="2"/><rect class="c" x="322" y="2" rx="2" ry="2"/><rect class="c" x="322" y="18" rx="2" ry="2"/><rect class="c" x="322" y="34" rx="2" ry="2"/><rect class="c" x="322" y="50" rx="2" ry="2"/><rect class="c" x="322" y="66" rx="2" ry="2"/><rect class="c" x="322" y="82" rx="2" ry="2"/><rect class="c" x="322" y="98" rx="2" ry="2"/><rect class="c" x="338" y="2" rx="2" ry="2"/><rect class="c" x="338" y="18" rx="2" ry="2"/><rect class="c" x="338" y="34" rx="2" ry="2"/><rect class="c" x="338" y="50" rx="2" ry="2"/><rect class="c" x="338" y="66" rx="2" ry="2"/><rect class="c" x="338" y="82" rx="2" ry="2"/><rect class="c" x="338" y="98" rx="2" ry="2"/><rect class="c" x="354" y="2" rx="2" ry="2"/><rect class="c" x="354" y="18" rx="2" ry="2"/><rect class="c" x="354" y="34" rx="2" ry="2"/><rect class="c" x="354" y="50" rx="2" ry="2"/><rect class="c" x="354" y="66" rx="2" ry="2"/><rect class="c" x="354" y="82" rx="2" ry="2"/><rect class="c" x="354" y="98" rx="2" ry="2"/><rect class="c" x="370" y="2" rx="2" ry="2"/><rect class="c" x="370" y="18" rx="2" ry="2"/><rect class="c" x="370" y="34" rx="2" ry="2"/><rect class="c" x="370" y="50" rx="2" ry="2"/><rect class="c" x="370" y="66" rx="2" ry="2"/><rect class="c" x="370" y="82" rx="2" ry="2"/><rect class="c" x="370" y="98" rx="2" ry="2"/><rect class="c" x="386" y="2" rx="2" ry="2"/><rect class="c" x="386" y="18" rx="2" ry="2"/><rect class="c" x="386" y="34" rx="2" ry="2"/><rect class="c" x="386" y="50" rx="2" ry="2"/><rect class="c" x="386" y="66" rx="2" ry="2"/><rect class="c" x="386" y="82" rx="2" ry="2"/><rect class="c" x="386" y="98" rx="2" ry="2"/><rect class="c" x="402" y="2" rx="2" ry="2"/><rect class="c" x="402" y="18" rx="2" ry="2"/><rect class="c" x="402" y="34" rx="2" ry="2"/><rect class="c" x="402" y="50" rx="2" ry="2"/><rect class="c" x="402" y="66" rx="2" ry="2"/><rect class="c c0" x="402" y="82" rx="2" ry="2"/><rect class="c" x="402" y="98" rx="2" ry="2"/><rect class="c" x="418" y="2" rx="2" ry="2"/><rect class="c" x="418" y="18" rx="2" ry="2"/><rect class="c" x="418" y="34" rx="2" ry="2"/><rect class="c" x="418" y="50" rx="2" ry="2"/><rect class="c" x="418" y="66" rx="2" ry="2"/><rect class="c" x="418" y="82" rx="2" ry="2"/><rect class="c" x="418" y="98" rx="2" ry="2"/><rect class="c" x="434" y="2" rx="2" ry="2"/><rect class="c" x="434" y="18" rx="2" ry="2"/><rect class="c" x="434" y="34" rx="2" ry="2"/><rect class="c" x="434" y="50" rx="2" ry="2"/><rect class="c" x="434" y="66" rx="2" ry="2"/><rect class="c" x="434" y="82" rx="2" ry="2"/><rect class="c" x="434" y="98" rx="2" ry="2"/><rect class="c" x="450" y="2" rx="2" ry="2"/><rect class="c" x="450" y="18" rx="2" ry="2"/><rect class="c" x="450" y="34" rx="2" ry="2"/><rect class="c" x="450" y="50" rx="2" ry="2"/><rect class="c" x="450" y="66" rx="2" ry="2"/><rect class="c" x="450" y="82" rx="2" ry="2"/><rect class="c" x="450" y="98" rx="2" ry="2"/><rect class="c" x="466" y="2" rx="2" ry="2"/><rect class="c" x="466" y="18" rx="2" ry="2"/><rect class="c" x="466" y="34" rx="2" ry="2"/><rect class="c" x="466" y="50" rx="2" ry="2"/><rect class="c" x="466" y="66" rx="2" ry="2"/><rect class="c" x="466" y="82" rx="2" ry="2"/><rect class="c" x="466" y="98" rx="2" ry="2"/><rect class="c" x="482" y="2" rx="2" ry="2"/><rect class="c" x="482" y="18" rx="2" ry="2"/><rect class="c" x="482" y="34" rx="2" ry="2"/><rect class="c" x="482" y="50" rx="2" ry="2"/><rect class="c" x="482" y="66" rx="2" ry="2"/><rect class="c" x="482" y="82" rx="2" ry="2"/><rect class="c" x="482" y="98" rx="2" ry="2"/><rect class="c" x="498" y="2" rx="2" ry="2"/><rect class="c" x="498" y="18" rx="2" ry="2"/><rect class="c" x="498" y="34" rx="2" ry="2"/><rect class="c" x="498" y="50" rx="2" ry="2"/><rect class="c" x="498" y="66" rx="2" ry="2"/><rect class="c" x="498" y="82" rx="2" ry="2"/><rect class="c" x="498" y="98" rx="2" ry="2"/><rect class="c" x="514" y="2" rx="2" ry="2"/><rect class="c" x="514" y="18" rx="2" ry="2"/><rect class="c c1" x="514" y="34" rx="2" ry="2"/><rect class="c" x="514" y="50" rx="2" ry="2"/><rect class="c" x="514" y="66" rx="2" ry="2"/><rect class="c c2" x="514" y="82" rx="2" ry="2"/><rect class="c" x="514" y="98" rx="2" ry="2"/><rect class="c" x="530" y="2" rx="2" ry="2"/><rect class="c" x="530" y="18" rx="2" ry="2"/><rect class="c" x="530" y="34" rx="2" ry="2"/><rect class="c" x="530" y="50" rx="2" ry="2"/><rect class="c" x="530" y="66" rx="2" ry="2"/><rect class="c c3" x="530" y="82" rx="2" ry="2"/><rect class="c" x="530" y="98" rx="2" ry="2"/><rect class="c c4" x="546" y="2" rx="2" ry="2"/><rect class="c" x="546" y="18" rx="2" ry="2"/><rect class="c" x="546" y="34" rx="2" ry="2"/><rect class="c c5" x="546" y="50" rx="2" ry="2"/><rect class="c c6" x="546" y="66" rx="2" ry="2"/><rect class="c" x="546" y="82" rx="2" ry="2"/><rect class="c c7" x="546" y="98" rx="2" ry="2"/><rect class="c" x="562" y="2" rx="2" ry="2"/><rect class="c" x="562" y="18" rx="2" ry="2"/><rect class="c" x="562" y="34" rx="2" ry="2"/><rect class="c" x="562" y="50" rx="2" ry="2"/><rect class="c" x="562" y="66" rx="2" ry="2"/><rect class="c" x="562" y="82" rx="2" ry="2"/><rect class="c" x="562" y="98" rx="2" ry="2"/><rect class="c" x="578" y="2" rx="2" ry="2"/><rect class="c c8" x="578" y="18" rx="2" ry="2"/><rect class="c c9" x="578" y="34" rx="2" ry="2"/><rect class="c" x="578" y="50" rx="2" ry="2"/><rect class="c" x="578" y="66" rx="2" ry="2"/><rect class="c" x="578" y="82" rx="2" ry="2"/><rect class="c" x="578" y="98" rx="2" ry="2"/><rect class="c" x="594" y="2" rx="2" ry="2"/><rect class="c" x="594" y="18" rx="2" ry="2"/><rect class="c" x="594" y="34" rx="2" ry="2"/><rect class="c ca" x="594" y="50" rx="2" ry="2"/><rect class="c" x="594" y="66" rx="2" ry="2"/><rect class="c" x="594" y="82" rx="2" ry="2"/><rect class="c cb" x="594" y="98" rx="2" ry="2"/><rect class="c" x="610" y="2" rx="2" ry="2"/><rect class="c cc" x="610" y="18" rx="2" ry="2"/><rect class="c cd" x="610" y="34" rx="2" ry="2"/><rect class="c ce" x="610" y="50" rx="2" ry="2"/><rect class="c cf" x="610" y="66" rx="2" ry="2"/><rect class="c" x="610" y="82" rx="2" ry="2"/><rect class="c" x="610" y="98" rx="2" ry="2"/><rect class="c" x="626" y="2" rx="2" ry="2"/><rect class="c" x="626" y="18" rx="2" ry="2"/><rect class="c" x="626" y="34" rx="2" ry="2"/><rect class="c" x="626" y="50" rx="2" ry="2"/><rect class="c" x="626" y="66" rx="2" ry="2"/><rect class="c" x="626" y="82" rx="2" ry="2"/><rect class="c cg" x="626" y="98" rx="2" ry="2"/><rect class="c" x="642" y="2" rx="2" ry="2"/><rect class="c ch" x="642" y="18" rx="2" ry="2"/><rect class="c ci" x="642" y="34" rx="2" ry="2"/><rect class="c cj" x="642" y="50" rx="2" ry="2"/><rect class="c ck" x="642" y="66" rx="2" ry="2"/><rect class="c" x="642" y="82" rx="2" ry="2"/><rect class="c" x="642" y="98" rx="2" ry="2"/><rect class="c" x="658" y="2" rx="2" ry="2"/><rect class="c" x="658" y="18" rx="2" ry="2"/><rect class="c cl" x="658" y="34" rx="2" ry="2"/><rect class="c cm" x="658" y="50" rx="2" ry="2"/><rect class="c" x="658" y="66" rx="2" ry="2"/><rect class="c" x="658" y="82" rx="2" ry="2"/><rect class="c" x="658" y="98" rx="2" ry="2"/><rect class="c cn" x="674" y="2" rx="2" ry="2"/><rect class="c co" x="674" y="18" rx="2" ry="2"/><rect class="c cp" x="674" y="34" rx="2" ry="2"/><rect class="c" x="674" y="50" rx="2" ry="2"/><rect class="c" x="674" y="66" rx="2" ry="2"/><rect class="c" x="674" y="82" rx="2" ry="2"/><rect class="c" x="674" y="98" rx="2" ry="2"/><rect class="c" x="690" y="2" rx="2" ry="2"/><rect class="c" x="690" y="18" rx="2" ry="2"/><rect class="c" x="690" y="34" rx="2" ry="2"/><rect class="c" x="690" y="50" rx="2" ry="2"/><rect class="c" x="690" y="66" rx="2" ry="2"/><rect class="c" x="690" y="82" rx="2" ry="2"/><rect class="c" x="690" y="98" rx="2" ry="2"/><rect class="c" x="706" y="2" rx="2" ry="2"/><rect class="c cq" x="706" y="18" rx="2" ry="2"/><rect class="c" x="706" y="34" rx="2" ry="2"/><rect class="c cr" x="706" y="50" rx="2" ry="2"/><rect class="c cs" x="706" y="66" rx="2" ry="2"/><rect class="c" x="706" y="82" rx="2" ry="2"/><rect class="c" x="706" y="98" rx="2" ry="2"/><rect class="c" x="722" y="2" rx="2" ry="2"/><rect class="c" x="722" y="18" rx="2" ry="2"/><rect class="c" x="722" y="34" rx="2" ry="2"/><rect class="c" x="722" y="50" rx="2" ry="2"/><rect class="c" x="722" y="66" rx="2" ry="2"/><rect class="c ct" x="722" y="82" rx="2" ry="2"/><rect class="c cu" x="722" y="98" rx="2" ry="2"/><rect class="c cv" x="738" y="2" rx="2" ry="2"/><rect class="c cw" x="738" y="18" rx="2" ry="2"/><rect class="c" x="738" y="34" rx="2" ry="2"/><rect class="c" x="738" y="50" rx="2" ry="2"/><rect class="c cx" x="738" y="66" rx="2" ry="2"/><rect class="c" x="738" y="82" rx="2" ry="2"/><rect class="c" x="738" y="98" rx="2" ry="2"/><rect class="c" x="754" y="2" rx="2" ry="2"/><rect class="c" x="754" y="18" rx="2" ry="2"/><rect class="c" x="754" y="34" rx="2" ry="2"/><rect class="c cy" x="754" y="50" rx="2" ry="2"/><rect class="c cz" x="754" y="66" rx="2" ry="2"/><rect class="c" x="754" y="82" rx="2" ry="2"/><rect class="c c10" x="754" y="98" rx="2" ry="2"/><rect class="c" x="770" y="2" rx="2" ry="2"/><rect class="c c11" x="770" y="18" rx="2" ry="2"/><rect class="c c12" x="770" y="34" rx="2" ry="2"/><rect class="c" x="770" y="50" rx="2" ry="2"/><rect class="c" x="770" y="66" rx="2" ry="2"/><rect class="c" x="770" y="82" rx="2" ry="2"/><rect class="c" x="770" y="98" rx="2" ry="2"/><rect class="c c13" x="786" y="2" rx="2" ry="2"/><rect class="c c14" x="786" y="18" rx="2" ry="2"/><rect class="c" x="786" y="34" rx="2" ry="2"/><rect class="c" x="786" y="50" rx="2" ry="2"/><rect class="c c15" x="786" y="66" rx="2" ry="2"/><rect class="c" x="786" y="82" rx="2" ry="2"/><rect class="c c16" x="786" y="98" rx="2" ry="2"/><rect class="c c17" x="802" y="2" rx="2" ry="2"/><rect class="c c18" x="802" y="18" rx="2" ry="2"/><rect class="c" x="802" y="34" rx="2" ry="2"/><rect class="c" x="802" y="50" rx="2" ry="2"/><rect class="c" x="802" y="66" rx="2" ry="2"/><rect class="c" x="802" y="82" rx="2" ry="2"/><rect class="c" x="802" y="98" rx="2" ry="2"/><rect class="c c19" x="818" y="2" rx="2" ry="2"/><rect class="c c1a" x="818" y="18" rx="2" ry="2"/><rect class="c c1b" x="818" y="34" rx="2" ry="2"/><rect class="c c1c" x="818" y="50" rx="2" ry="2"/><rect class="c" x="818" y="66" rx="2" ry="2"/><rect class="c c1d" x="818" y="82" rx="2" ry="2"/><rect class="c c1e" x="818" y="98" rx="2" ry="2"/><rect class="c" x="834" y="2" rx="2" ry="2"/><rect class="c c1f" x="834" y="18" rx="2" ry="2"/><rect class="c c1g" x="834" y="34" rx="2" ry="2"/><rect class="c c1h" x="834" y="50" rx="2" ry="2"/><rect class="u u0" height="12" width="487.4" x="0.0" y="144"/><rect class="u u1" height="12" width="267.6" x="486.8" y="144"/><rect class="u u2" height="12" width="47.7" x="753.8" y="144"/><rect class="u u3" height="12" width="47.7" x="800.9" y="144"/><rect class="s s0" x="0.8" y="0.8" width="14.4" height="14.4" rx="4.5" ry="4.5"/><rect class="s s1" x="1.8" y="1.8" width="12.3" height="12.3" rx="4.1" ry="4.1"/><rect class="s s2" x="2.6" y="2.6" width="10.8" height="10.8" rx="3.6" ry="3.6"/><rect class="s s3" x="3.0" y="3.0" width="9.9" height="9.9" rx="3.3" ry="3.3"/></svg>